<?xml version="1.0" standalone="no"?>
<!DOCTYPE svg PUBLIC "-//W3C//DTD SVG 20010904//EN"
 "http://www.w3.org/TR/2001/REC-SVG-20010904/DTD/svg10.dtd">
<svg version="1.0" xmlns="http://www.w3.org/2000/svg"
 width="500.000000pt" height="500.000000pt" viewBox="0 0 500.000000 500.000000"
 preserveAspectRatio="xMidYMid meet">
<metadata>
Created by potrace 1.16, written by Peter Selinger 2001-2019
</metadata>
<g transform="translate(0.000000,500.000000) scale(0.100000,-0.100000)"
fill="#E33434" stroke="none">
<path d="M0 2500 l0 -2500 2500 0 2500 0 0 2500 0 2500 -2500 0 -2500 0 0
-2500z m4970 0 l0 -2470 -2470 0 -2470 0 0 2470 0 2470 2470 0 2470 0 0 -2470z"/>
<path d="M3225 3735 c-456 -75 -808 -368 -939 -782 -46 -148 -59 -257 -53
-447 8 -231 35 -351 122 -532 117 -243 322 -430 592 -539 135 -55 274 -83 445
-91 427 -20 788 126 1027 414 182 219 271 497 271 844 l0 128 -670 0 -670 0 0
-235 0 -235 315 0 c210 0 315 -3 315 -10 0 -28 -56 -116 -106 -166 -124 -124
-343 -180 -539 -139 -217 46 -372 195 -431 415 -24 90 -24 282 0 370 57 209
213 363 416 411 71 17 220 17 290 0 122 -30 230 -96 291 -177 l33 -44 353 0
c194 0 353 2 353 4 0 3 -12 38 -26 78 -134 372 -443 630 -862 718 -131 28
-401 35 -527 15z"/>
<path d="M460 3525 l0 -135 571 0 c539 0 571 -1 566 -17 -2 -10 -192 -457
-421 -995 -229 -537 -416 -979 -416 -982 0 -3 67 -6 148 -6 l149 0 441 1034
442 1035 0 100 0 101 -740 0 -740 0 0 -135z"/>
</g>
</svg>
